<svg width="544" height="135" viewBox="0 0 544 135" fill="none" xmlns="http://www.w3.org/2000/svg">
<path d="M49.92 60L50.976 57.696C56.8 57.76 61.504 58.656 65.088 60.384C68.672 62.048 71.296 64.32 72.96 67.2C74.624 70.016 75.456 73.152 75.456 76.608C75.456 80.384 74.528 83.744 72.672 86.688C70.88 89.568 68.224 91.84 64.704 93.504C61.184 95.168 56.832 96 51.648 96H6.24L11.904 59.04L6.24 24H50.016C56.672 24 61.76 25.568 65.28 28.704C68.864 31.776 70.656 36 70.656 41.376C70.656 44.192 69.952 46.976 68.544 49.728C67.2 52.416 65.024 54.72 62.016 56.64C59.008 58.496 54.976 59.616 49.92 60ZM15.456 93.024L12 88.512H51.168C55.904 88.512 59.584 87.456 62.208 85.344C64.896 83.168 66.24 80.064 66.24 76.032C66.24 71.744 64.672 68.448 61.536 66.144C58.4 63.84 53.76 62.688 47.616 62.688H16.512V55.392H47.136C51.232 55.392 54.624 54.272 57.312 52.032C60.064 49.792 61.44 46.528 61.44 42.24C61.44 39.104 60.32 36.544 58.08 34.56C55.904 32.512 52.672 31.488 48.384 31.488H12L15.456 26.976L20.64 59.04L15.456 93.024ZM95.5275 24V91.968L91.4955 88.032H145.928V96H86.5035V24H95.5275ZM209.54 56.16V63.84H160.484V56.16H209.54ZM166.148 60L160.676 93.792L155.876 88.128H212.132V96H151.46L157.412 60L151.46 24H211.652V31.872H155.876L160.676 26.208L166.148 60ZM295.362 64.512C295.362 69.184 294.498 73.504 292.77 77.472C291.042 81.44 288.578 84.896 285.378 87.84C282.242 90.784 278.498 93.088 274.146 94.752C269.794 96.352 264.994 97.152 259.746 97.152C253.922 97.152 248.61 96.256 243.81 94.464C239.01 92.672 234.85 90.144 231.33 86.88C227.874 83.552 225.186 79.616 223.266 75.072C221.41 70.528 220.482 65.504 220.482 60C220.482 54.496 221.41 49.472 223.266 44.928C225.186 40.384 227.906 36.48 231.426 33.216C234.946 29.888 239.106 27.328 243.906 25.536C248.77 23.744 254.114 22.848 259.938 22.848C266.658 22.848 272.674 24.032 277.986 26.4C283.298 28.768 287.586 32 290.85 36.096C294.114 40.192 296.002 44.832 296.514 50.016H290.946C290.178 45.6 288.418 41.728 285.666 38.4C282.914 35.072 279.33 32.48 274.914 30.624C270.562 28.768 265.474 27.84 259.65 27.84C252.866 27.84 246.946 29.184 241.89 31.872C236.898 34.496 232.994 38.208 230.178 43.008C227.426 47.808 226.05 53.472 226.05 60C226.05 66.464 227.426 72.128 230.178 76.992C232.994 81.792 236.93 85.536 241.986 88.224C247.042 90.848 252.962 92.16 259.746 92.16C266.402 92.16 272.194 90.88 277.122 88.32C282.05 85.76 285.858 82.272 288.546 77.856C291.234 73.44 292.578 68.448 292.578 62.88L295.362 64.512ZM264.258 67.008V62.208H297.474V96H292.866L292.578 64.8L294.69 67.008H264.258ZM311.195 24H316.571V96H311.195V24ZM371.675 24H377.051V96H371.675V24ZM313.691 57.6H375.515V62.4H313.691V57.6Z" fill="white"/>
<path d="M407.52 92.08C405.557 94.0427 403.723 94.7253 402.016 94.128C400.395 93.5307 399.584 92.4213 399.584 90.8C399.584 89.264 400.139 87.9413 401.248 86.832C402.443 85.7227 403.723 85.168 405.088 85.168C407.648 85.168 408.928 86.4053 408.928 88.88C408.928 90.2453 408.459 91.312 407.52 92.08ZM456.404 70.448C456.063 71.1307 455.551 71.728 454.868 72.24C454.271 72.752 453.801 73.0933 453.46 73.264C453.204 73.3493 453.289 73.0933 453.716 72.496C455.252 70.6187 456.233 68.8693 456.66 67.248C457.172 65.6267 457.172 64.3467 456.66 63.408C456.233 62.384 455.38 61.872 454.1 61.872C452.393 61.872 450.388 62.5547 448.084 63.92C445.78 65.2853 443.391 67.0773 440.916 69.296C438.527 71.5147 436.265 73.904 434.132 76.464C432.084 78.9387 430.42 81.3707 429.14 83.76C427.86 86.064 427.22 88.0693 427.22 89.776C427.22 91.056 427.476 91.8667 427.988 92.208C428.5 92.5493 429.012 92.72 429.524 92.72C431.487 92.72 433.748 91.824 436.308 90.032C438.953 88.1547 441.641 85.808 444.372 82.992C447.103 80.176 449.705 77.3173 452.18 74.416C454.655 71.4293 456.788 68.7413 458.58 66.352C460.457 63.9627 461.737 62.3413 462.42 61.488C463.359 61.8293 464.468 61.9573 465.748 61.872C467.113 61.7867 468.265 61.7013 469.204 61.616C469.033 61.872 468.137 62.9387 466.516 64.816C464.98 66.6933 463.103 68.9547 460.884 71.6C458.751 74.16 456.575 76.8053 454.356 79.536C452.223 82.2667 450.431 84.656 448.98 86.704C447.529 88.752 446.804 90.1173 446.804 90.8C446.804 91.6533 446.975 92.208 447.316 92.464C447.743 92.6347 448.383 92.72 449.236 92.72C450.26 92.6347 451.753 92.1653 453.716 91.312C455.679 90.3733 458.196 88.5813 461.268 85.936C464.34 83.2907 468.052 79.3653 472.404 74.16C472.404 74.16 472.575 74.288 472.916 74.544C473.343 74.8 473.556 74.928 473.556 74.928C468.436 80.9013 463.7 85.5947 459.348 89.008C454.996 92.336 451.028 94 447.444 94C445.567 94 444.287 93.7013 443.604 93.104C443.007 92.5067 442.708 91.6533 442.708 90.544C442.708 89.6907 443.049 88.6667 443.732 87.472C444.5 86.192 445.353 84.9547 446.292 83.76C447.231 82.5653 447.999 81.6267 448.596 80.944C448.596 80.944 448.511 80.9013 448.34 80.816C448.169 80.7307 448.084 80.688 448.084 80.688C446.121 83.0773 444.031 85.296 441.812 87.344C439.593 89.392 437.375 91.0133 435.156 92.208C433.023 93.4027 430.932 94 428.884 94C426.751 94 425.257 93.488 424.404 92.464C423.551 91.3547 423.124 89.6907 423.124 87.472C423.124 85.3387 423.807 82.7787 425.172 79.792C426.537 76.72 428.5 73.7333 431.06 70.832C433.62 67.8453 436.692 65.3707 440.276 63.408C443.945 61.4453 448.041 60.464 452.564 60.464C454.783 60.464 456.319 60.8907 457.172 61.744C458.025 62.512 458.409 63.4507 458.324 64.56C458.239 65.6693 457.983 66.7787 457.556 67.888C457.129 68.9973 456.745 69.8507 456.404 70.448ZM472.375 76.08C472.034 76.4213 471.778 76.464 471.607 76.208C471.436 75.8667 471.394 75.5253 471.479 75.184C472.93 73.7333 474.338 72.0267 475.703 70.064C477.154 68.1013 478.348 66.2667 479.287 64.56C480.311 62.8533 480.908 61.7013 481.079 61.104C481.25 61.104 481.506 60.976 481.847 60.72C482.274 60.464 482.658 60.3787 482.999 60.464C482.914 61.0613 482.786 61.616 482.615 62.128C482.53 62.64 482.828 63.1093 483.511 63.536C484.194 63.9627 485.602 64.3893 487.735 64.816C489.868 65.2427 493.111 65.712 497.463 66.224C497.89 66.3093 498.188 66.48 498.359 66.736C498.615 66.9067 498.487 67.2053 497.975 67.632C496.354 68.912 494.562 70.5333 492.599 72.496C490.636 74.4587 488.716 76.5493 486.839 78.768C485.047 80.9013 483.554 82.992 482.359 85.04C481.25 87.088 480.695 88.7947 480.695 90.16C480.695 91.696 481.378 92.464 482.743 92.464C484.45 92.464 486.37 91.7813 488.503 90.416C490.722 89.0507 492.94 87.3867 495.159 85.424C497.378 83.376 499.426 81.328 501.303 79.28C503.266 77.1467 504.887 75.3973 506.167 74.032L507.191 74.8C505.996 75.9947 504.46 77.6587 502.583 79.792C500.706 81.9253 498.572 84.1013 496.183 86.32C493.879 88.4533 491.404 90.288 488.759 91.824C486.114 93.2747 483.383 94 480.567 94C478.946 94 477.495 93.6587 476.215 92.976C474.935 92.208 474.295 90.8853 474.295 89.008C474.295 87.216 475.063 85.3387 476.599 83.376C478.135 81.4133 480.055 79.4507 482.359 77.488C484.663 75.44 487.052 73.52 489.527 71.728C492.087 69.8507 494.348 68.144 496.311 66.608L497.207 67.76C496.354 67.4187 494.86 67.12 492.727 66.864C490.594 66.5227 488.375 66.096 486.071 65.584C483.767 64.9867 481.762 64.2187 480.055 63.28C478.434 62.3413 477.623 61.0613 477.623 59.44C477.623 58.5867 477.964 57.5627 478.647 56.368C479.415 55.088 480.439 54.448 481.719 54.448C482.914 54.448 483.724 54.704 484.151 55.216C484.578 55.6427 484.791 56.24 484.791 57.008C484.791 57.52 484.364 58.5867 483.511 60.208C482.658 61.744 481.591 63.5787 480.311 65.712C479.031 67.76 477.666 69.7227 476.215 71.6C474.85 73.4773 473.57 74.9707 472.375 76.08ZM531.728 37.552C532.496 37.8933 533.605 38.064 535.056 38.064C536.592 37.9787 537.787 37.8507 538.64 37.68C535.909 41.4347 532.88 45.5733 529.552 50.096C526.224 54.6187 522.853 59.1413 519.44 63.664C516.112 68.1013 512.997 72.2827 510.096 76.208C507.28 80.048 505.019 83.2907 503.312 85.936C501.605 88.5813 500.752 90.2453 500.752 90.928C500.752 91.44 501.051 91.824 501.648 92.08C502.16 92.336 502.843 92.464 503.696 92.464C505.573 92.464 507.621 91.824 509.84 90.544C512.144 89.1787 514.405 87.5147 516.624 85.552C518.928 83.504 521.019 81.456 522.896 79.408C524.859 77.2747 526.395 75.44 527.504 73.904L528.528 74.672C527.333 76.208 525.755 78.0427 523.792 80.176C521.829 82.3093 519.653 84.4427 517.264 86.576C514.875 88.7093 512.4 90.5013 509.84 91.952C507.365 93.3173 504.976 94 502.672 94C501.051 94 499.771 93.7013 498.832 93.104C497.808 92.4213 497.296 91.312 497.296 89.776C497.296 88.4107 498.107 86.32 499.728 83.504C501.349 80.6027 503.44 77.2747 506 73.52C508.645 69.7653 511.504 65.7973 514.576 61.616C517.648 57.3493 520.677 53.168 523.664 49.072C526.736 44.8907 529.424 41.0507 531.728 37.552ZM517.648 51.888C516.795 51.888 516.368 51.632 516.368 51.12C516.368 50.6933 516.795 50.48 517.648 50.48H541.968C542.224 50.48 542.48 50.5227 542.736 50.608C543.077 50.6933 543.248 50.864 543.248 51.12C543.248 51.4613 543.077 51.6747 542.736 51.76C542.48 51.8453 542.224 51.888 541.968 51.888H517.648Z" fill="white"/>
<path d="M404 53.9311C407.777 53.096 414.515 49.3127 420.841 45.4092C431.432 38.8747 434.14 35.3816 439.198 31.3801C443.251 28.1738 450.576 35.369 461.53 35.4797C467.124 35.5362 470.834 33.2686 474.633 31.6901C475.484 31.1618 476.11 30.5355 477.163 30.2128C478.217 29.8902 479.678 29.8902 481.817 30.5228" stroke="white" stroke-width="3" stroke-linecap="round"/>
</svg>
